<svg width="716" height="331" viewBox="0 0 716 331" xmlns="http://www.w3.org/2000/svg" fill="white">
<path d="M420.903 330.999V255.672H447.801V308.617H492.13V330.999H420.903Z" />
<path d="M526.843 255.672H499.945V330.999H526.843V255.672Z"/>
<path d="M566.152 330.999L533.484 255.672H561.163L585.236 311.475L609.82 255.672H633.773L600.473 330.999H566.152Z"/>
<path d="M640.445 330.999V255.672H716V276.76H667.343V283.318H696.615V302.089H667.343V309.941H715.79V330.999H640.445Z"/>
<path d="M530.599 165.635V185.971H551.636V240.962H574.176V185.971H595.214V165.635H530.599Z"/>
<path d="M643.299 185.971H676.358V165.635H643.299C612.915 165.635 596.716 180.766 596.716 203.298C596.716 225.83 612.945 240.962 643.299 240.962H676.358V220.626H643.299C629.234 220.626 620.007 215.602 620.007 203.298C620.007 191.025 629.264 185.971 643.299 185.971Z"/>
<path d="M484.767 165.635L472.746 210.608L460.724 165.635H420.903V240.962H443.443V179.683L459.823 240.962H485.669L502.048 179.653V240.962H524.588V165.635H484.767Z"/>
<path d="M210.947 330.879H60.7085L0 0H150.239L210.947 330.879Z"/>
<path d="M241.301 165.455L210.947 330.879H361.215L391.569 165.455H241.301Z"/>
</svg>
